# xmcd
#
# Track frame offsets:
#	150
#	19442
#	42150
#
# Disc length: 842 seconds
#
# Revision: 1
# Processed by: cddbd v1.5PL3 Copyright (c) Steve Scherf et al.
# Submitted via: CDex 1.50Beta5
#
DISCID=1f034803
DTITLE=Rough Laugh - Rough Laugh
DYEAR=1900
DGENRE=Pop
TTITLE0=東京深海魚
TTITLE1=幸せなら手を叩け
TTITLE2=ナイーフ・アート
EXTD=
EXTT0=
EXTT1=
EXTT2=
PLAYORDER=
